{"title":"Mr. Joe B Carvalho 2014 Hindi Movies DVDScrRip XViD New Source +","uid":9439738,"size":734768690,"categoryP":"video","categoryS":"movies","magnet":"?xt=urn:btih:a3c523b4e5faa9efdd5b1d71fe70d4605c452723&amp;dn=Mr.+Joe+B+Carvalho+2014+Hindi+Movies+DVDScrRip+XViD+New+Source+%2B&amp;tr=udp%3A%2F%2Ftracker.openbittorrent.com%3A80&amp;tr=udp%3A%2F%2Fopen.demonii.com%3A1337&amp;tr=udp%3A%2F%2Ftracker.coppersurfer.tk%3A6969&amp;tr=udp%3A%2F%2Fexodus.desync.com%3A6969","seeders":0,"leechers":1,"uploader":"basicssom","files":2,"time":1388982305,"description":" &lt;a href=&quot;http://s5.postimg.org/hgeuxszk7/logo.png&quot; rel=&quot;nofollow&quot; target=&quot;_NEW&quot;&gt;http://s5.postimg.org/hgeuxszk7/logo.png&lt;/a&gt;\n\nMr. Joe B Carvalho 2014 Hindi Movies DVDScrRip XViD New Source +Sample â˜»rDXâ˜»\n\nPlease check SCREEN SHOTS first :\n &lt;a href=&quot;\nhttp://moviesreview.co.nr/2014/1/MrJoeBCarvalhoDS/1.html&quot; rel=&quot;nofollow&quot; target=&quot;_NEW&quot;&gt;\nhttp://moviesreview.co.nr/2014/1/MrJoeBCarvalhoDS/1.html&lt;/a&gt;\n &lt;a href=&quot;\nhttp://moviesreview.co.nr/2014/1/MrJoeBCarvalhoDS/2.html&quot; rel=&quot;nofollow&quot; target=&quot;_NEW&quot;&gt;\nhttp://moviesreview.co.nr/2014/1/MrJoeBCarvalhoDS/2.html&lt;/a&gt;\n &lt;a href=&quot;\nhttp://moviesreview.co.nr/2014/1/MrJoeBCarvalhoDS/3.html&quot; rel=&quot;nofollow&quot; target=&quot;_NEW&quot;&gt;\nhttp://moviesreview.co.nr/2014/1/MrJoeBCarvalhoDS/3.html&lt;/a&gt;\n &lt;a href=&quot;\nhttp://moviesreview.co.nr/2014/1/MrJoeBCarvalhoDS/4.html&quot; rel=&quot;nofollow&quot; target=&quot;_NEW&quot;&gt;\nhttp://moviesreview.co.nr/2014/1/MrJoeBCarvalhoDS/4.html&lt;/a&gt;\n &lt;a href=&quot;\nhttp://moviesreview.co.nr/2014/1/MrJoeBCarvalhoDS/5.html&quot; rel=&quot;nofollow&quot; target=&quot;_NEW&quot;&gt;\nhttp://moviesreview.co.nr/2014/1/MrJoeBCarvalhoDS/5.html&lt;/a&gt;\n &lt;a href=&quot;\nhttp://moviesreview.co.nr/2014/1/MrJoeBCarvalhoDS/6.html&quot; rel=&quot;nofollow&quot; target=&quot;_NEW&quot;&gt;\nhttp://moviesreview.co.nr/2014/1/MrJoeBCarvalhoDS/6.html&lt;/a&gt;\n\nAll rDX torrents are Seeding From the 1Gbps Seedbox 24X7\n &lt;a href=&quot;\nhttp://istoreimg.com/upload/big/2014/01/04/52c6f16535cf5.jpg&quot; rel=&quot;nofollow&quot; target=&quot;_NEW&quot;&gt;\nhttp://istoreimg.com/upload/big/2014/01/04/52c6f16535cf5.jpg&lt;/a&gt;\n &lt;a href=&quot;\nhttp://istoreimg.com/upload/big/2014/01/04/52c6f1675f180.jpg&quot; rel=&quot;nofollow&quot; target=&quot;_NEW&quot;&gt;\nhttp://istoreimg.com/upload/big/2014/01/04/52c6f1675f180.jpg&lt;/a&gt;\n &lt;a href=&quot;\nhttp://istoreimg.com/upload/big/2014/01/04/52c6f168e1a82.jpg&quot; rel=&quot;nofollow&quot; target=&quot;_NEW&quot;&gt;\nhttp://istoreimg.com/upload/big/2014/01/04/52c6f168e1a82.jpg&lt;/a&gt;\n &lt;a href=&quot;\nhttp://istoreimg.com/upload/big/2014/01/04/52c6f16b5155c.jpg&quot; rel=&quot;nofollow&quot; target=&quot;_NEW&quot;&gt;\nhttp://istoreimg.com/upload/big/2014/01/04/52c6f16b5155c.jpg&lt;/a&gt;\n\nFormat                                   : AVI\nFormat/Info                              : Audio Video Interleave\nFile size                                : 696 MiB\nDuration                                 : 2h 0mn\nOverall bit rate                         : 808 Kbps\nWriting library                          : MPlayer\n\nVideo\nID                                       : 0\nFormat                                   : MPEG-4 Visual\nFormat profile                           : Advanced Simple@L5\nFormat settings, BVOP                    : 2\nFormat settings, QPel                    : No\nFormat settings, GMC                     : No warppoints\nFormat settings, Matrix                  : Default (H.263)\nMuxing mode                              : Packed bitstream\nCodec ID                                 : XVID\nCodec ID/Hint                            : XviD\nDuration                                 : 2h 0mn\nBit rate                                 : 722 Kbps\nWidth                                    : 640 pixels\nHeight                                   : 272 pixels\nDisplay aspect ratio                     : 2.35:1\nFrame rate                               : 29.970 fps\nColor space                              : YUV\nChroma subsampling                       : 4:2:0\nBit depth                                : 8 bits\nScan type                                : Progressive\nCompression mode                         : Lossy\nBits/(Pixel*Frame)                       : 0.138\nStream size                              : 622 MiB (89%)\nWriting library                          : XviD 64\n\nAudio\nID                                       : 1\nFormat                                   : MPEG Audio\nFormat version                           : Version 1\nFormat profile                           : Layer 3\nMode                                     : Joint stereo\nMode extension                           : MS Stereo\nCodec ID                                 : 55\nCodec ID/Hint                            : MP3\nDuration                                 : 2h 0mn\nBit rate mode                            : Constant\nBit rate                                 : 80.0 Kbps\nChannel(s)                               : 2 channels\nSampling rate                            : 32.0 KHz\nCompression mode                         : Lossy\nStream size                              : 68.9 MiB (10%)\nAlignment                                : Split accross interleaves\nInterleave, duration                     : 500 ms (14.98 video frames)\nInterleave, preload duration             : 500 ms\nWriting library                          : LAME3.99r\nEncoding settings                        : -m j -V 4 -q 2 -lowpass 13.5 -b 80","torrent":{"xt":"urn:btih:a3c523b4e5faa9efdd5b1d71fe70d4605c452723","amp;dn":"Mr.+Joe+B+Carvalho+2014+Hindi+Movies+DVDScrRip+XViD+New+Source+%2B","amp;tr":["udp%3A%2F%2Ftracker.openbittorrent.com%3A80","udp%3A%2F%2Fopen.demonii.com%3A1337","udp%3A%2F%2Ftracker.coppersurfer.tk%3A6969","udp%3A%2F%2Fexodus.desync.com%3A6969"],"infoHash":"a3c523b4e5faa9efdd5b1d71fe70d4605c452723","infoHashBuffer":{"type":"Buffer","data":[163,197,35,180,229,250,169,239,221,91,29,113,254,112,212,96,92,69,39,35]},"announce":[],"urlList":[]}}